<svg width="36" height="36" viewBox="0 0 36 36" fill="none" xmlns="http://www.w3.org/2000/svg">
<g clip-path="url(#clip0)">
<path d="M6.18006 32.34V21.24C6.18006 14.58 11.5801 9.18004 18.2401 9.18004C24.9001 9.18004 30.3001 14.58 30.3001 21.24V32.34H34.4401C35.28 32.34 36 33.06 36 33.9C36 34.74 35.28 35.46 34.4401 35.46H1.62005C0.780059 35.46 0.0600586 34.74 0.0600586 33.9C0.0600586 33.06 0.780059 32.34 1.62005 32.34H6.18006ZM19.1401 14.04L13.2001 23.8201H17.9401L16.7401 31.14L22.6801 21.36H17.9401L19.1401 14.04ZM28.2 3.30005C28.74 3.60004 28.92 4.32004 28.62 4.92005L26.46 8.64004L24.42 7.50003L26.58 3.78004C26.94 3.18003 27.66 3.00003 28.2 3.30005ZM18.2401 0.540039C18.9601 0.540039 19.5001 1.08004 19.5001 1.74003V5.94004H16.9801V1.74003C16.9801 1.08004 17.5201 0.540039 18.2401 0.540039ZM8.28005 3.30005C8.82005 3.00006 9.54005 3.18006 9.84003 3.72006L12 7.44005L9.96002 8.58006L7.80002 4.86007C7.50003 4.32007 7.68003 3.66009 8.28001 3.30009L8.28005 3.30005ZM0.960058 10.62C1.26005 10.08 1.98005 9.84003 2.52005 10.2L6.24003 12.36L5.10002 14.4L1.38003 12.24C0.840035 11.9401 0.660035 11.2201 0.960023 10.62H0.960058ZM35.5201 10.62C35.82 11.16 35.64 11.88 35.1 12.24L31.3801 14.4L30.24 12.36L33.96 10.2C34.5 9.90004 35.22 10.08 35.52 10.62H35.5201Z" fill="#F3CC00"/>
</g>
<defs>
<clipPath id="clip0">
<rect width="36" height="36" fill="white"/>
</clipPath>
</defs>
</svg>
